<?xml version="1.0" encoding="UTF-8" standalone="no"?>
<!-- Created with Inkscape (http://www.inkscape.org/) -->

<svg
   width="24"
   height="20"
   viewBox="0 0 6.3499998 5.2916669"
   version="1.1"
   id="svg5"
   inkscape:export-filename="close.png"
   inkscape:export-xdpi="96"
   inkscape:export-ydpi="96"
   inkscape:version="1.1 (c68e22c387, 2021-05-23)"
   sodipodi:docname="close.svg"
   xmlns:inkscape="http://www.inkscape.org/namespaces/inkscape"
   xmlns:sodipodi="http://sodipodi.sourceforge.net/DTD/sodipodi-0.dtd"
   xmlns="http://www.w3.org/2000/svg"
   xmlns:svg="http://www.w3.org/2000/svg">
  <sodipodi:namedview
     id="namedview7"
     pagecolor="#ffffff"
     bordercolor="#666666"
     borderopacity="1.0"
     inkscape:pageshadow="2"
     inkscape:pageopacity="0.0"
     inkscape:pagecheckerboard="0"
     inkscape:document-units="mm"
     showgrid="false"
     units="px"
     inkscape:zoom="16.771208"
     inkscape:cx="18.931254"
     inkscape:cy="14.101548"
     inkscape:window-width="1920"
     inkscape:window-height="1013"
     inkscape:window-x="-9"
     inkscape:window-y="-9"
     inkscape:window-maximized="1"
     inkscape:current-layer="layer1"
     height="20px" />
  <defs
     id="defs2" />
  <g
     inkscape:label="Layer 1"
     inkscape:groupmode="layer"
     id="layer1">
    <path
       id="rect1289"
       style="fill:#ff5555;fill-opacity:1;stroke:none;stroke-width:2.44821"
       d="m 2.0396689,1.1906994 c -0.081699,0 -0.1632244,0.03145 -0.225826,0.094051 -0.1252033,0.1252033 -0.1252033,0.3264488 0,0.451652 L 2.7233481,2.6459077 1.8138429,3.5554129 c -0.1252033,0.1252032 -0.1252033,0.3264487 0,0.451652 0.1252032,0.1252032 0.3264487,0.1252032 0.451652,0 L 3.1750001,3.0975597 4.0845053,4.0070649 c 0.1252032,0.1252032 0.3264487,0.1252032 0.4516519,0 0.1252032,-0.1252033 0.1252032,-0.3264488 0,-0.451652 L 3.626652,2.6459077 4.5361572,1.7364025 c 0.1252032,-0.1252032 0.1252032,-0.3264487 0,-0.451652 -0.1252032,-0.1252032 -0.3264487,-0.1252032 -0.4516519,0 L 3.1750001,2.1942557 2.2654949,1.2847505 C 2.2028932,1.2221489 2.1213674,1.1906994 2.0396689,1.1906994 Z" />
  </g>
</svg>
