<?xml version="1.0" encoding="UTF-8" standalone="no"?>
<!-- Created with Inkscape (http://www.inkscape.org/) -->

<svg
   width="24"
   height="16"
   viewBox="0 0 6.3499998 4.2333335"
   version="1.1"
   id="svg5"
   inkscape:export-filename="close.png"
   inkscape:export-xdpi="96"
   inkscape:export-ydpi="96"
   inkscape:version="1.1 (c68e22c387, 2021-05-23)"
   sodipodi:docname="close.svg"
   xmlns:inkscape="http://www.inkscape.org/namespaces/inkscape"
   xmlns:sodipodi="http://sodipodi.sourceforge.net/DTD/sodipodi-0.dtd"
   xmlns="http://www.w3.org/2000/svg"
   xmlns:svg="http://www.w3.org/2000/svg">
  <sodipodi:namedview
     id="namedview7"
     pagecolor="#ffffff"
     bordercolor="#666666"
     borderopacity="1.0"
     inkscape:pageshadow="2"
     inkscape:pageopacity="0.0"
     inkscape:pagecheckerboard="0"
     inkscape:document-units="mm"
     showgrid="false"
     units="px"
     inkscape:zoom="16.771208"
     inkscape:cx="14.876686"
     inkscape:cy="14.071735"
     inkscape:window-width="1284"
     inkscape:window-height="1008"
     inkscape:window-x="2373"
     inkscape:window-y="0"
     inkscape:window-maximized="0"
     inkscape:current-layer="layer1" />
  <defs
     id="defs2" />
  <g
     inkscape:label="Layer 1"
     inkscape:groupmode="layer"
     id="layer1">
    <path
       id="rect1289"
       style="fill:#ff5555;fill-opacity:1;stroke:none;stroke-width:9.25308"
       d="M 7.7089844 2.5 C 7.4002026 2.5 7.0920733 2.6188642 6.8554688 2.8554688 C 6.3822596 3.3286779 6.3822596 4.0892909 6.8554688 4.5625 L 10.292969 8 L 6.8554688 11.4375 C 6.3822596 11.910709 6.3822596 12.671322 6.8554688 13.144531 C 7.3286779 13.61774 8.0892909 13.61774 8.5625 13.144531 L 12 9.7070312 L 15.4375 13.144531 C 15.910709 13.61774 16.671322 13.61774 17.144531 13.144531 C 17.61774 12.671322 17.61774 11.910709 17.144531 11.4375 L 13.707031 8 L 17.144531 4.5625 C 17.61774 4.0892909 17.61774 3.3286779 17.144531 2.8554688 C 16.671322 2.3822596 15.910709 2.3822596 15.4375 2.8554688 L 12 6.2929688 L 8.5625 2.8554688 C 8.3258954 2.6188642 8.0177662 2.5 7.7089844 2.5 z "
       transform="scale(0.26458333)" />
  </g>
</svg>
