<?xml version="1.0" encoding="UTF-8" standalone="no"?>
<svg
   fill="none"
   height="32"
   viewBox="0 0 32 32"
   width="32"
   version="1.1"
   id="svg4"
   sodipodi:docname="face-city.svg"
   inkscape:export-filename="face-city.png"
   inkscape:export-xdpi="192"
   inkscape:export-ydpi="192"
   inkscape:version="1.1.1 (3bf5ae0d25, 2021-09-20)"
   xmlns:inkscape="http://www.inkscape.org/namespaces/inkscape"
   xmlns:sodipodi="http://sodipodi.sourceforge.net/DTD/sodipodi-0.dtd"
   xmlns="http://www.w3.org/2000/svg"
   xmlns:svg="http://www.w3.org/2000/svg">
  <defs
     id="defs8">
    <style
       id="style922">.cls-1{fill:none;stroke:#000;stroke-linejoin:round;stroke-width:2px;}</style>
  </defs>
  <sodipodi:namedview
     id="namedview6"
     pagecolor="#ffffff"
     bordercolor="#666666"
     borderopacity="1.0"
     inkscape:pageshadow="2"
     inkscape:pageopacity="0.0"
     inkscape:pagecheckerboard="0"
     showgrid="false"
     inkscape:zoom="6.4375"
     inkscape:cx="16"
     inkscape:cy="15.92233"
     inkscape:window-width="2268"
     inkscape:window-height="1277"
     inkscape:window-x="3089"
     inkscape:window-y="124"
     inkscape:window-maximized="0"
     inkscape:current-layer="svg4" />
  <path
     id="path1133"
     style="color:#000000;fill:#180027;stroke-width:0.508057;-inkscape-stroke:none"
     d="M 3.8102242,0 C 1.7100398,0.0024 0.0023961,1.710219 0,3.810623 v 21.339492 c 0.0024,2.100405 1.7100398,3.808227 3.8102242,3.810624 H 15.713206 c 3.290967,3.581972 8.78533,4.067501 12.645181,1.084638 3.86941,-2.990251 4.783115,-8.450411 2.123406,-12.54231 V 3.30254 c 0,-0.4179 -0.344188,-0.762125 -0.762045,-0.762125 H 6.6043886 V 0.762125 C 6.6043886,0.344224 6.2602004,0 5.8423437,0 Z m 0,1.52425 H 5.0802989 V 21.339492 H 3.8102242 C 2.9643868,21.339294 2.185359,21.67946 1.5240897,22.190928 V 3.810623 C 1.5255997,2.545706 2.5455703,1.526309 3.8102242,1.52425 Z M 6.6043886,4.064665 H 13.916249 L 10.745031,13.207184 6.6043886,10.97539 Z m 8.9252514,0 h 0.926758 l -1.939841,5.5928839 c -0.169416,0.4879881 0.202867,1.0123631 0.719379,1.0121971 H 22.0993 c 0.417857,0 0.762045,-0.344224 0.762045,-0.7621249 V 4.064665 h 0.50803 v 2.7944572 c 0,0.4179004 0.344188,0.7621247 0.762045,0.7621247 h 4.826285 V 8.12933 H 24.13142 c -0.417857,0 -0.762045,0.3442244 -0.762045,0.7621248 v 4.3633622 c -0.168997,-0.01427 -0.338507,-0.02462 -0.50803,-0.02977 v -1.285093 c 0,-0.417901 -0.344188,-0.762125 -0.762045,-0.762125 h -7.568851 c -0.323882,8e-6 -0.614461,0.206937 -0.720371,0.513045 l -3.170225,9.145496 c -0.168761,0.487767 0.204283,1.011192 0.72037,1.011205 h 1.893205 c -0.01429,0.169174 -0.02461,0.338381 -0.02977,0.508083 H 10.653744 C 10.33006,22.355553 10.039542,22.561901 9.9333736,22.86771 L 8.3487567,27.436489 H 7.4219992 L 11.149867,16.691325 c 0.122286,-0.35193 -0.03009,-0.744454 -0.358201,-0.920901 L 6.6043886,13.515805 v -0.807773 l 4.2061304,2.265535 9.92e-4,9.93e-4 c 0.110865,0.05929 0.234464,0.09019 0.360185,0.0903 0.323489,2.17e-4 0.613943,-0.206541 0.720371,-0.512052 z m 2.540149,0 h 3.267466 v 5.0808313 h -5.02771 z m 6.823675,0 h 4.06424 v 2.0323325 h -4.06424 z m 0,5.5889145 h 4.06424 v 6.1297455 c -1.153638,-1.074098 -2.532607,-1.867117 -4.06424,-2.254619 z m -9.821249,3.0484985 h 6.265041 v 0.632127 c -3.786878,0.527556 -6.866372,3.281351 -7.806991,6.98912 h -1.100401 z m 7.004263,2.038287 a 8.1284783,8.1293302 0 0 1 2.526258,0.24908 c 0.346199,0.0926 0.686898,0.207183 1.018044,0.344345 0.331426,0.137278 0.652944,0.296764 0.963471,0.476328 a 8.1284783,8.1293302 0 0 1 1.987469,1.631423 c 0.418923,0.476952 0.785522,1.006949 1.079563,1.589745 a 8.1284783,8.1293302 0 0 1 0.756091,2.49576 c 0.04557,0.351255 0.07442,0.710619 0.07442,1.082653 -0.0052,4.350414 -3.524505,7.870132 -7.874463,7.875289 -0.371652,0 -0.730634,-0.02893 -1.081548,-0.07443 a 8.1284783,8.1293302 0 0 1 -2.499469,-0.758152 c -0.580629,-0.293354 -1.109125,-0.658285 -1.584616,-1.075707 a 8.1284783,8.1293302 0 0 1 -1.633236,-1.990654 c -0.179366,-0.310326 -0.339126,-0.631388 -0.476279,-0.962579 -0.137025,-0.330888 -0.251811,-0.671211 -0.344308,-1.017159 a 8.1284783,8.1293302 0 0 1 -0.252031,-2.560262 c 0.04105,-0.632959 0.15728,-1.265965 0.361176,-1.885465 a 8.1284783,8.1293302 0 0 1 1.229393,-2.30126 c 0.216084,-0.280517 0.450462,-0.554705 0.713425,-0.817696 0.259706,-0.259734 0.529874,-0.493539 0.806696,-0.707545 a 8.1284783,8.1293302 0 0 1 2.309948,-1.235476 c 0.630813,-0.207884 1.275455,-0.319194 1.919996,-0.358238 z m -15.4720894,0.507091 2.893389,1.557989 -3.6891702,10.631044 h -1.997391 -9.922e-4 c -1.2646539,-0.0021 -2.2846195,-1.021456 -2.2861345,-2.286374 0.00151,-1.264917 1.0214806,-2.284314 2.2861345,-2.286374 h 2.0321195 c 0.4178567,0 0.7620449,-0.344224 0.7620449,-0.762125 z M 22.60733,15.749585 c -0.291682,0 -0.594535,0.176251 -0.713425,0.495182 l -1.33854,3.570475 h -4.044394 c -0.341092,3.1e-5 -0.613003,0.223122 -0.714416,0.497167 -0.101412,0.274046 -0.0406,0.621393 0.218293,0.843498 l 3.199002,2.742855 -0.901953,3.608185 c -0.07846,0.315373 0.0555,0.621042 0.279815,0.790902 0.224314,0.16986 0.555212,0.215638 0.837454,0.05457 l 3.178165,-1.816992 3.176179,1.816992 c 0.282243,0.161059 0.614133,0.115281 0.838447,-0.05457 0.224315,-0.16986 0.357278,-0.476521 0.278821,-0.791895 l -0.901951,-3.607192 3.199001,-2.743848 h 9.92e-4 c 0.257726,-0.221785 0.317967,-0.566968 0.217302,-0.84052 -0.100665,-0.273551 -0.370452,-0.49737 -0.710448,-0.499152 h -9.92e-4 -4.044395 L 23.321748,16.244767 C 23.202857,15.925836 22.899014,15.749585 22.60733,15.749585 Z m 9.92e-4,2.933386 0.809673,2.160345 c 0.11073,0.297351 0.396102,0.496019 0.713425,0.496176 h 2.51435 l -1.994413,1.707834 c -0.218142,0.187327 -0.312482,0.483067 -0.2431,0.762124 l 0.582448,2.332023 -2.003344,-1.145172 c -0.233885,-0.133613 -0.522207,-0.133613 -0.756092,0 l -2.005328,1.146164 0.582448,-2.332022 c 0.06938,-0.279057 -0.02496,-0.574798 -0.243101,-0.762125 l -1.994414,-1.708826 h 2.512367 c 0.316833,3.16e-4 0.602892,-0.197604 0.714417,-0.49419 z m -11.411819,5.196936 h 2.127375 c 0.17186,1.263984 0.614401,2.465949 1.273051,3.556582 H 9.9621484 Z" />
</svg>
