<?xml version="1.0" encoding="UTF-8" standalone="no"?>
<svg
   fill="none"
   height="32"
   viewBox="0 0 32 32"
   width="32"
   version="1.1"
   id="svg4"
   sodipodi:docname="face-state.svg"
   inkscape:export-filename="face-state.png"
   inkscape:export-xdpi="192"
   inkscape:export-ydpi="192"
   inkscape:version="1.1.1 (3bf5ae0d25, 2021-09-20)"
   xmlns:inkscape="http://www.inkscape.org/namespaces/inkscape"
   xmlns:sodipodi="http://sodipodi.sourceforge.net/DTD/sodipodi-0.dtd"
   xmlns="http://www.w3.org/2000/svg"
   xmlns:svg="http://www.w3.org/2000/svg">
  <defs
     id="defs8">
    <style
       id="style922">.cls-1{fill:none;stroke:#000;stroke-linejoin:round;stroke-width:2px;}</style>
  </defs>
  <sodipodi:namedview
     id="namedview6"
     pagecolor="#ffffff"
     bordercolor="#666666"
     borderopacity="1.0"
     inkscape:pageshadow="2"
     inkscape:pageopacity="0.0"
     inkscape:pagecheckerboard="0"
     showgrid="false"
     inkscape:zoom="25.75"
     inkscape:cx="16"
     inkscape:cy="15.980583"
     inkscape:window-width="2268"
     inkscape:window-height="1277"
     inkscape:window-x="3089"
     inkscape:window-y="124"
     inkscape:window-maximized="0"
     inkscape:current-layer="svg4" />
  <path
     d="M 28,7.9999998 H 18 v -2 c 0,-1.1 -0.9,-2 -2,-2 H 6 v -2 C 6,0.89599985 5.104,-1.5e-7 4,-1.5e-7 c -1.104,0 -2,0.896 -2,1.99999995 V 30 c 0,1.104 0.896,2 2,2 1.104,0 2,-0.896 2,-2 V 20 h 4 v 2 c 0,1.1 0.9,2 2,2 h 16 c 1.1,0 2,-0.9 2,-2 V 10 C 30,8.8999998 29.1,7.9999998 28,7.9999998 Z m -22,0 h 8 V 16 H 6 Z M 26,20 h -8 v -8 h 8 z"
     id="path946"
     style="fill:#180027;fill-opacity:1" />
</svg>
