<?xml version="1.0" encoding="UTF-8" standalone="no"?>
<svg
   viewBox="0 0 64 64"
   version="1.1"
   id="svg4"
   sodipodi:docname="face-cog.svg"
   inkscape:version="1.1.1 (3bf5ae0d25, 2021-09-20)"
   width="64"
   height="64"
   inkscape:export-filename="face-cog.png"
   inkscape:export-xdpi="96"
   inkscape:export-ydpi="96"
   xmlns:inkscape="http://www.inkscape.org/namespaces/inkscape"
   xmlns:sodipodi="http://sodipodi.sourceforge.net/DTD/sodipodi-0.dtd"
   xmlns="http://www.w3.org/2000/svg"
   xmlns:svg="http://www.w3.org/2000/svg">
  <defs
     id="defs8" />
  <sodipodi:namedview
     id="namedview6"
     pagecolor="#ffffff"
     bordercolor="#666666"
     borderopacity="1.0"
     inkscape:pageshadow="2"
     inkscape:pageopacity="0.0"
     inkscape:pagecheckerboard="0"
     showgrid="false"
     inkscape:zoom="3.2890625"
     inkscape:cx="15.657957"
     inkscape:cy="15.657957"
     inkscape:window-width="1758"
     inkscape:window-height="1011"
     inkscape:window-x="291"
     inkscape:window-y="57"
     inkscape:window-maximized="0"
     inkscape:current-layer="svg4" />
  <path
     d="m 28,0 h 8 l 2,12 3.414,1.414 L 52,6.586 57.414,12 50.586,22.586 52,26 64,28 v 8 L 52,38 50.586,41.414 57.414,52 52,57.414 41.414,50.586 38,52 36,64 H 28 L 26,52 22.586,50.586 12,57.414 6.586,52 13.414,41.414 12,38 0,36 V 28 L 12,26 13.414,22.586 6.586,12 12,6.586 22.586,13.414 26,12 Z m 4,20 a 12,12 0 0 0 0,24 12,12 0 0 0 0,-24"
     id="path2"
     style="fill:#360045;fill-opacity:1;stroke-width:1.99999" />
</svg>
