<?xml version="1.0" encoding="UTF-8" standalone="no"?>
<!-- Created with Inkscape (http://www.inkscape.org/) -->

<svg
   width="32"
   height="32"
   viewBox="0 0 8.4666665 8.4666669"
   version="1.1"
   id="svg5"
   inkscape:version="1.1.2 (b8e25be833, 2022-02-05)"
   sodipodi:docname="face-region.svg"
   inkscape:export-filename="face-region.png"
   inkscape:export-xdpi="192"
   inkscape:export-ydpi="192"
   xmlns:inkscape="http://www.inkscape.org/namespaces/inkscape"
   xmlns:sodipodi="http://sodipodi.sourceforge.net/DTD/sodipodi-0.dtd"
   xmlns="http://www.w3.org/2000/svg"
   xmlns:svg="http://www.w3.org/2000/svg">
  <sodipodi:namedview
     id="namedview7"
     pagecolor="#ffffff"
     bordercolor="#666666"
     borderopacity="1.0"
     inkscape:pageshadow="2"
     inkscape:pageopacity="0.0"
     inkscape:pagecheckerboard="0"
     inkscape:document-units="mm"
     showgrid="false"
     units="px"
     width="32px"
     inkscape:zoom="7.6548664"
     inkscape:cx="23.187864"
     inkscape:cy="17.766476"
     inkscape:window-width="1920"
     inkscape:window-height="1027"
     inkscape:window-x="-8"
     inkscape:window-y="22"
     inkscape:window-maximized="1"
     inkscape:current-layer="layer1" />
  <defs
     id="defs2" />
  <g
     inkscape:label="Layer 1"
     inkscape:groupmode="layer"
     id="layer1">
    <path
       id="path836"
       style="fill:#180027;fill-opacity:1;stroke-width:0.0169297"
       d="m 4.23333,2e-5 c -1.72215,0 -3.44442,0.006 -3.50779,0.0196 -0.33808,0.07 -0.63592,0.3678 -0.7059,0.7059 -0.0262,0.12676 -0.0262,6.88935 0,7.01611 0.0682,0.3293 0.35094,0.62041 0.68006,0.70021 0.11938,0.0292 6.90219,0.0344 7.04091,0.006 0.33907,-0.0702 0.63623,-0.36681 0.70642,-0.7059 0.0262,-0.12676 0.0262,-6.88935 0,-7.01611 C 8.37683,0.38674 8.07968,0.09013 7.74061,0.01993 7.67721,0.00683 5.95549,3.3e-4 4.23333,3.3e-4 Z m 0,0.16899 c 1.65439,0 3.30841,0.007 3.37189,0.0202 0.32003,0.0667 0.60557,0.35174 0.67231,0.67179 0.0265,0.12697 0.0265,6.61835 0,6.74532 -0.0667,0.32006 -0.35228,0.6051 -0.67231,0.6718 -0.13705,0.0289 -6.65045,0.0236 -6.7691,-0.005 C 0.52599,8.19792 0.25396,7.91739 0.18914,7.60649 c -0.0265,-0.12697 -0.0265,-6.61835 0,-6.74532 0.0667,-0.32005 0.35176,-0.60504 0.67179,-0.67179 0.0635,-0.0132 1.71801,-0.0202 3.3724,-0.0202 z" />
    <g
       id="g2715"
       transform="translate(0,0.07421002)">
      <path
         id="path1050"
         style="fill:#180027;fill-opacity:1;stroke-width:0.0262303"
         d="m 7.1814737,0.72924453 c -0.1116301,0.003 -0.2257306,0.032233 -0.3384807,0.087333 -0.27153,0.1329401 -0.4174188,0.37614477 -0.4170288,0.69556467 3.5e-4,0.3050801 0.1300019,0.577941 0.5043619,1.0635011 C 7.1974963,2.9221434 7.1969365,2.9221209 7.5308065,2.4738408 7.8617664,2.0294208 7.959704,1.8066921 7.9592039,1.4930222 7.9588639,1.2591922 7.882148,1.0935887 7.698238,0.92819873 7.546818,0.79199873 7.3675236,0.72438443 7.1814737,0.72924453 Z m -5.9159179,0.00103 c -0.07,4.101e-4 -0.1405931,0.010606 -0.2103231,0.031006 -0.18614996,0.0541 -0.39794461,0.23913647 -0.4831746,0.42219637 -0.11006999,0.2363599 -0.0792495,0.5341845 0.0909505,0.8712647 0.0744,0.1474999 0.410687,0.6208432 0.513147,0.722953 0.0974,0.097 0.15964,0.061664 0.37052,-0.2098061 0.47336,-0.60926 0.6007529,-1.008263 0.4387329,-1.3745932 C 1.8584185,0.90611903 1.5690158,0.72855793 1.2655558,0.73027803 Z" />
      <path
         id="path1519"
         style="fill:#180027;fill-opacity:1;stroke-width:0.0262303"
         d="m 4.2343667,1.6279916 c -0.16633,0 -0.3327476,0.015425 -0.4459676,0.043925 -0.37777,0.0974 -0.7842342,0.355518 -1.0102741,0.6407878 -0.1481,0.18691 -0.3124001,0.5153533 -0.37052,0.7405234 -0.0681,0.2637999 -0.057679,0.6628134 0.025321,0.9704833 0.13859,0.5135001 0.367668,0.9722761 0.7477579,1.4955161 0.5003601,0.68877 0.8487531,1.1195918 0.9337931,1.1560018 0.0302,0.0124 0.1014735,0.019102 0.1591636,0.012402 0.13419,-0.0139 0.2339017,-0.11843 0.7152018,-0.75861 C 5.6101527,5.1026511 5.7917225,4.7888267 5.9758627,4.2304167 6.1812825,3.6074767 6.1545125,3.1124376 5.8880127,2.6124276 5.6442428,2.1550075 5.1932446,1.8042265 4.6803345,1.6719164 4.5671045,1.6426164 4.4006969,1.6279914 4.2343667,1.6279916 Z m 0,0.743107 c 0.5687902,0 1.0309508,0.3970137 1.1322307,0.9720337 0.0496,0.2817801 -0.042737,0.6333567 -0.2320272,0.8821168 -0.11279,0.14827 -0.3594507,0.3164976 -0.5508706,0.3756876 C 4.0249395,4.7735168 3.4371639,4.5143978 3.196704,3.9890878 3.1008042,3.7794477 3.0677995,3.5562473 3.1016194,3.3519173 c 0.0957,-0.57789 0.5605875,-0.9808187 1.1327473,-0.9808187 z m 0,0.4459676 c -0.39835,0 -0.6805784,0.283079 -0.6805784,0.682129 0,0.28107 0.1279935,0.4936395 0.3715536,0.6149495 V 4.113628 C 4.0302717,4.165228 4.0998465,4.181307 4.2328165,4.180807 4.6336664,4.179807 4.917309,3.8973051 4.9159789,3.5007452 4.914979,3.0995352 4.6330369,2.8170659 4.2343667,2.8170662 Z" />
      <path
         id="path2710"
         style="fill:#180027;fill-opacity:1;stroke-width:0.0262303"
         d="m 7.1814737,5.4917457 c -0.1116301,0.003 -0.2257306,0.03223 -0.3384807,0.08733 -0.27153,0.13294 -0.4174188,0.376144 -0.4170288,0.695564 3.5e-4,0.30508 0.1300019,0.577941 0.5043619,1.063501 0.2671702,0.3465 0.2666104,0.346478 0.6004804,-0.101802 0.3309599,-0.44442 0.4288975,-0.667149 0.4283974,-0.980819 -3.4e-4,-0.23383 -0.077056,-0.399433 -0.2609659,-0.564823 -0.15142,-0.1362 -0.3307144,-0.203815 -0.5167643,-0.198954 z m -5.9159179,0.001 c -0.07,4.1e-4 -0.1405931,0.01061 -0.2103231,0.03101 -0.18614996,0.0541 -0.39794461,0.239136 -0.4831746,0.422196 -0.11006999,0.23636 -0.0792495,0.534184 0.0909505,0.871265 0.0744,0.1475 0.410687,0.620843 0.513147,0.722953 0.0974,0.097 0.15964,0.06166 0.37052,-0.209806 0.47336,-0.60926 0.6007529,-1.008263 0.4387329,-1.374594 -0.12699,-0.287176 -0.4163927,-0.464737 -0.7198527,-0.463017 z" />
    </g>
  </g>
</svg>
