<?xml version="1.0" encoding="UTF-8" standalone="no"?>
<!-- Created with Inkscape (http://www.inkscape.org/) -->

<svg
   width="24"
   height="20"
   viewBox="0 0 6.3499998 5.2916669"
   version="1.1"
   id="svg5"
   inkscape:export-filename="resize.png"
   inkscape:export-xdpi="96"
   inkscape:export-ydpi="96"
   inkscape:version="1.1 (c68e22c387, 2021-05-23)"
   sodipodi:docname="resize.svg"
   xmlns:inkscape="http://www.inkscape.org/namespaces/inkscape"
   xmlns:sodipodi="http://sodipodi.sourceforge.net/DTD/sodipodi-0.dtd"
   xmlns="http://www.w3.org/2000/svg"
   xmlns:svg="http://www.w3.org/2000/svg">
  <sodipodi:namedview
     id="namedview7"
     pagecolor="#ffffff"
     bordercolor="#666666"
     borderopacity="1.0"
     inkscape:pageshadow="2"
     inkscape:pageopacity="0.0"
     inkscape:pagecheckerboard="0"
     inkscape:document-units="mm"
     showgrid="false"
     units="px"
     inkscape:zoom="2.8284271"
     inkscape:cx="-3.7123106"
     inkscape:cy="7.9549514"
     inkscape:window-width="1920"
     inkscape:window-height="1013"
     inkscape:window-x="-9"
     inkscape:window-y="-9"
     inkscape:window-maximized="1"
     inkscape:current-layer="layer1"
     height="20px" />
  <defs
     id="defs2" />
  <g
     inkscape:label="Layer 1"
     inkscape:groupmode="layer"
     id="layer1">
    <path
       id="rect1289"
       style="fill:#ffffff;fill-opacity:1;stroke:none;stroke-width:2.44821"
       d="M 1.7201781,1.190625 2.0746784,2.515092 3.0441281,1.5456421 Z m 2.5900228,0 c -0.079005,0 -0.1578671,0.029701 -0.2196248,0.088367 -0.00204,0.00194 -0.0042,0.00368 -0.0062,0.00568 L 3.1748696,2.1941813 2.7232177,2.6458333 1.8137124,3.5553385 c -0.002,0.00201 -0.00375,0.00416 -0.00568,0.0062 -0.1192681,0.1255543 -0.1175192,0.3222471 0.00568,0.4454506 0.116743,0.1167432 0.2996193,0.1247373 0.425297,0.02377 l 0.00207,-0.00156 2.3171713,-2.3171713 c 5.557e-4,-6.799e-4 0.00101,-0.00138 0.00156,-0.00207 C 4.660764,1.5842954 4.6527699,1.4014191 4.5360268,1.2846761 4.4734253,1.2220745 4.391813,1.190625 4.3102009,1.190625 Z m -0.03514,1.5859497 -0.9694497,0.9694498 1.3244668,0.3550172 z" />
  </g>
</svg>
