<?xml version="1.0" encoding="UTF-8" standalone="no"?>
<!-- Created with Inkscape (http://www.inkscape.org/) -->

<svg
   width="24"
   height="16"
   viewBox="0 0 6.3499998 4.2333335"
   version="1.1"
   id="svg5"
   inkscape:export-filename="resize.png"
   inkscape:export-xdpi="96"
   inkscape:export-ydpi="96"
   inkscape:version="1.1 (c68e22c387, 2021-05-23)"
   sodipodi:docname="resize.svg"
   xmlns:inkscape="http://www.inkscape.org/namespaces/inkscape"
   xmlns:sodipodi="http://sodipodi.sourceforge.net/DTD/sodipodi-0.dtd"
   xmlns="http://www.w3.org/2000/svg"
   xmlns:svg="http://www.w3.org/2000/svg">
  <sodipodi:namedview
     id="namedview7"
     pagecolor="#ffffff"
     bordercolor="#666666"
     borderopacity="1.0"
     inkscape:pageshadow="2"
     inkscape:pageopacity="0.0"
     inkscape:pagecheckerboard="0"
     inkscape:document-units="mm"
     showgrid="false"
     units="px"
     inkscape:zoom="2.8284271"
     inkscape:cx="15.379573"
     inkscape:cy="8.131728"
     inkscape:window-width="1284"
     inkscape:window-height="1008"
     inkscape:window-x="2373"
     inkscape:window-y="0"
     inkscape:window-maximized="0"
     inkscape:current-layer="layer1" />
  <defs
     id="defs2" />
  <g
     inkscape:label="Layer 1"
     inkscape:groupmode="layer"
     id="layer1">
    <path
       id="rect1289"
       style="fill:#ffffff;fill-opacity:1;stroke:none;stroke-width:9.25308"
       d="M 6.5019531 2.5 L 7.8417969 7.5058594 L 11.505859 3.8417969 L 6.5019531 2.5 z M 16.291016 2.5 C 15.992413 2.5 15.694353 2.6122541 15.460938 2.8339844 C 15.453235 2.8413008 15.445058 2.8479109 15.4375 2.8554688 L 12 6.2929688 L 10.292969 8 L 6.8554688 11.4375 C 6.8479109 11.445058 6.8413008 11.453235 6.8339844 11.460938 C 6.3832074 11.935474 6.3898174 12.67888 6.8554688 13.144531 C 7.2967021 13.585765 7.987888 13.615979 8.4628906 13.234375 L 8.4707031 13.228516 L 17.228516 4.4707031 C 17.230615 4.4681326 17.2323 4.465474 17.234375 4.4628906 C 17.615979 3.987888 17.585765 3.2967021 17.144531 2.8554688 C 16.907927 2.6188642 16.599471 2.5 16.291016 2.5 z M 16.158203 8.4941406 L 12.494141 12.158203 L 17.5 13.5 L 16.158203 8.4941406 z "
       transform="scale(0.26458333)" />
  </g>
</svg>
